<?xml version="1.0" encoding="UTF-8"?>
<svg version="1.1" viewBox="0 0 1600 1600" width="1280" height="1280" xmlns="http://www.w3.org/2000/svg">
<path transform="translate(0)" d="m0 0h1600v1600h-1600v-1600z" fill="#FCFCFC"/>
<path transform="translate(553,331)" d="m0 0h5c-0.33 0.66-0.66 1.32-1 2-2.37 23.4 9.05 45 19.9 64.9 1.64 3.05 3.17 6.15 4.71 9.26 2.54 5.13 5.18 10.2 7.88 15.2 4.66 8.75 9.1 17.6 13.5 26.5 10.2 20.5 20.9 40.7 31.6 61 3.89 7.35 7.74 14.7 11.4 22.2 6.23 12.6 12.8 24.9 19.6 37.2 4.7 8.49 9.1 17.1 13.4 25.8 4.68 9.53 9.35 19 14.6 28.2 3.96 6.93 7.58 14 11.1 21.2 2.48 5.02 4.97 10 7.47 15 0.904 1.81 1.8 3.63 2.71 5.44 3.12 6.26 6.32 12.4 9.7 18.6 6.39 11.6 12.4 23.4 18.3 35.3 1.24 2.48 2.48 4.96 3.73 7.44 0.938 1.86 1.88 3.73 2.81 5.59 0.465 0.924 0.931 1.85 1.41 2.8 2.31 4.62 4.57 9.25 6.71 13.9 0.402 0.875 0.803 1.75 1.22 2.65 0.754 1.65 1.5 3.31 2.23 4.98 0.337 0.738 0.673 1.48 1.02 2.24 0.286 0.645 0.572 1.29 0.867 1.96 1.4 2.05 2.84 2.69 5.11 3.62 5.45-7.69 10.6-15.5 15.5-23.5 2.27-3.71 4.7-7.09 7.45-10.5 0.433-0.887 0.866-1.77 1.31-2.69 1.9-3.74 4.21-6.97 6.64-10.4 2.81-4.04 5.43-8.2 8.02-12.4 2.81-4.45 2.81-4.45 5.02-5.56 2 2 2 2 2.22 4.1-0.0243 1.3-0.0243 1.3-0.049 2.62-0.0137 0.982-0.0274 1.96-0.0416 2.98-0.0259 1.07-0.0518 2.14-0.0786 3.24-0.0203 1.1-0.0406 2.2-0.0615 3.34-0.0457 2.34-0.0965 4.68-0.152 7.02-0.0823 3.54-0.145 7.09-0.205 10.6-0.047 2.28-0.0951 4.55-0.145 6.83-0.0178 1.05-0.0357 2.09-0.054 3.17-0.288 11.1-1.94 20.9-6.43 31.1-0.756 1.85-1.51 3.69-2.25 5.54-0.769 1.88-1.54 3.76-2.31 5.64-0.386 0.946-0.772 1.89-1.17 2.87-0.378 0.925-0.757 1.85-1.15 2.8-0.544 1.33-0.544 1.33-1.1 2.69-0.88 2.12-1.8 4.21-2.73 6.3-1.18 2.87-1.84 5.44-2.42 8.47-1.78 6.84-5.99 10.8-10.9 15.7-1.18 1.32-2.35 2.66-3.5 4-4.93 5.65-9.96 11.2-15 16.8-0.803 0.886-1.61 1.77-2.43 2.68-1.1 1.2-1.1 1.2-2.21 2.43-1.98 2.19-1.98 2.19-3.85 5.13h-2c-0.247 0.784-0.495 1.57-0.75 2.38-1.46 3.06-2.3 3.24-5.25 4.62-0.681 1.33-1.35 2.66-2 4-0.959 1.28-1.96 2.53-3 3.75l-1.56 1.86c-1.44 1.39-1.44 1.39-3.44 1.39-0.371 0.866-0.371 0.866-0.75 1.75-1.46 2.63-2.89 4.37-5.25 6.25-2.22-0.19-3.42-0.415-5-2-0.281-1.98-0.523-3.96-0.75-5.94-1.12-8.26-3.3-16.1-5.66-24.1-0.503-1.7-0.99-3.4-1.47-5.1-1.38-4.81-3.04-9.32-5.11-13.9-0.585-1.31-1.17-2.62-1.75-3.94-0.334-0.749-0.668-1.5-1.01-2.27-1.61-3.63-3.21-7.28-4.8-10.9-0.293-0.669-0.586-1.34-0.888-2.03-0.286-0.654-0.572-1.31-0.866-1.98-0.284-0.649-0.568-1.3-0.86-1.97-0.776-1.79-1.53-3.59-2.29-5.39-1.41-3.23-2.93-6.36-4.52-9.5-0.975-1.93-1.93-3.86-2.88-5.8-3.22-6.56-6.52-13-10.2-19.3-3.32-5.71-6.32-11.5-9.2-17.4-1.73-3.44-3.58-6.79-5.46-10.1-2.01-3.63-3.92-7.31-5.84-11-7.98-15.2-16.3-30.3-24.6-45.4-1.28-2.32-2.55-4.64-3.83-6.96-0.48-0.873-0.961-1.75-1.46-2.65-3.48-6.34-6.85-12.7-10.2-19.2-4.51-8.7-9.15-17.3-13.9-25.9-4.18-7.64-8.21-15.4-12.2-23.1-3.28-6.31-6.68-12.5-10.2-18.7-3.05-5.37-5.81-10.9-8.54-16.4-1.69-3.39-3.51-6.69-5.38-9.98-1.26-2.28-2.4-4.6-3.55-6.94-2.43-4.92-5.16-9.62-7.98-14.3-1.67-2.9-3.17-5.86-4.65-8.86-0.698-1.28-1.41-2.55-2.12-3.81-2.61-4.68-5.16-9.4-7.69-14.1-0.409-0.758-0.819-1.52-1.24-2.3-0.381-0.715-0.762-1.43-1.15-2.17-0.345-0.644-0.69-1.29-1.05-1.95-0.747-1.64-0.747-1.64-0.747-3.64-0.66-0.33-1.32-0.66-2-1-0.66-0.66-1.32-1.32-2-2-0.0208 0.55-0.0416 1.1-0.063 1.67-0.719 18.7-1.71 37.4-2.75 56.1-0.0433 0.777-0.0866 1.55-0.131 2.36-2.54 45.7-5.15 91.3-10.1 137-0.117 1.09-0.117 1.09-0.236 2.19-3.08 28.5-7.28 56.8-12.5 85-0.19 1.04-0.38 2.07-0.576 3.14-1.32 6.96-2.95 13.8-4.74 20.7-0.29 1.11-0.58 2.23-0.879 3.38-1.23 4.7-2.45 9.39-3.69 14.1-0.299 1.14-0.598 2.29-0.906 3.47-0.269 1.02-0.538 2.05-0.815 3.1-0.71 2.98-1.24 5.95-1.71 8.97 18.9 4.48 38.3 3.03 57.5 2.09 2.49-0.0926 4.98-0.107 7.47-0.0918-4.15 4.55-8.81 7.72-14 11-1.45 0.928-1.45 0.928-2.94 1.88-2.06 1.12-2.06 1.12-4.06 1.12-0.33 0.99-0.66 1.98-1 3-22 16.5-48.7 23.2-75.6 23.1-1.5-0.00503-3-0.00959-4.5-0.0137-3.65-0.0109-7.29-0.0281-10.9-0.0488-1-3-1-3-0.215-4.73 0.632-0.998 0.632-0.998 1.28-2.02 7.83-13.5 12.9-29.6 15.5-45 0.457-2.27 0.457-2.27 1.36-5.32 10.9-37.5 12.7-79.3 16.1-118 0.101-1.13 0.202-2.27 0.305-3.44 5.1-57.9 7.31-116 10-174 0.91-19.5 1.83-39.1 2.81-58.6 0.059-1.18 0.059-1.18 0.119-2.37 0.974-19.3 2.12-38.6 3.88-57.9 0.0806-0.883 0.161-1.77 0.244-2.67 2.31-24.8 2.31-24.8 7.01-29.4 0.624-0.642 1.25-1.28 1.89-1.95 0.859-0.862 0.859-0.862 1.73-1.74 0.701-0.887 1.4-1.77 2.12-2.69 2.13-2.62 4.49-4.92 6.88-7.31 0.66-0.825 1.32-1.65 2-2.5 2.16-2.7 4.55-5.05 7-7.5 0.722-0.928 1.44-1.86 2.19-2.81 0.598-0.722 1.2-1.44 1.81-2.19h2c0.409-0.892 0.409-0.892 0.826-1.8 1.14-2.14 2.3-3.61 3.96-5.36 0.53-0.565 1.06-1.13 1.61-1.71 0.827-0.866 0.827-0.866 1.67-1.75 3.9-3.87 3.9-3.87 6.94-8.38z" fill="#000002"/>
<path transform="translate(1022,330)" d="m0 0c-4.56 5.18-10.2 8.42-16 12-1.02 0.667-1.02 0.667-2.07 1.35-4.84 3.15-9.9 5.7-15.1 8.22-2.7 1.36-5.24 2.86-7.83 4.43-2.95 1.69-5.91 3.34-8.88 5-0.777 0.438-1.55 0.877-2.36 1.33-4.51 2.51-8.99 4.72-13.8 6.67-3.3 1.4-3.3 1.4-6 3-0.912 2.73-1.16 4.5-1.24 7.33-0.0417 1.34-0.0417 1.34-0.0842 2.71-0.0389 1.48-0.0389 1.48-0.0787 2.99-0.0312 1.05-0.0625 2.1-0.0947 3.19-0.105 3.58-0.203 7.16-0.301 10.7-0.0743 2.61-0.149 5.22-0.224 7.83-0.207 7.27-0.406 14.5-0.603 21.8-0.105 3.87-0.212 7.75-0.318 11.6-1.74 63-3.19 126-4.6 189-0.0795 3.54-0.159 7.08-0.239 10.6-0.995 44.1-1.97 88.2-2.77 132-0.0225 1.24-0.0451 2.48-0.0683 3.76-0.218 12-0.432 24-0.638 36-0.403 23.4-0.856 46.8-1.74 70.3-10.9 0.0231-21.9 0.0409-32.8 0.0518-5.08 0.00523-10.2 0.0123-15.2 0.0236-4.9 0.0108-9.79 0.0168-14.7 0.0194-1.87 0.00185-3.74 0.00548-5.62 0.0109-2.61 0.00721-5.23 0.00826-7.84 0.0078-0.782 0.0036-1.56 0.00719-2.37 0.0109-5.34-0.0104-5.34-0.0104-6.46-1.12-0.104-2.61-0.142-5.18-0.139-7.79-0.00284-0.83-0.00568-1.66-0.00861-2.52-0.00841-2.82-0.00962-5.64-0.0109-8.45-0.00456-2.03-0.00956-4.05-0.015-6.08-0.0136-5.6-0.021-11.2-0.0274-16.8-0.00798-6.02-0.0217-12-0.0347-18.1-0.0218-10.4-0.04-20.9-0.0556-31.3-0.0164-11-0.0349-21.9-0.0561-32.9-0.00132-0.681-0.00264-1.36-0.00399-2.06-0.0067-3.46-0.0134-6.91-0.0202-10.4-0.0478-24.5-0.091-49-0.131-73.5-0.0393-23.8-0.0807-47.6-0.125-71.4-0.00204-1.1-0.00204-1.1-0.00413-2.22-0.0137-7.37-0.0274-14.7-0.0412-22.1-0.028-15-0.0558-30-0.0833-45-0.00127-0.69-0.00254-1.38-0.00384-2.09-0.0847-46.1-0.163-92.2-0.24-138-2.55 0.154-5.1 0.31-7.64 0.466-1.07 0.0647-1.07 0.0647-2.17 0.131-5.71 0.352-11.4 0.873-17.1 1.52-0.941 0.105-1.88 0.21-2.85 0.318-1.96 0.219-3.92 0.44-5.88 0.663-2.95 0.336-5.9 0.665-8.86 0.994-9.47 1.06-18.9 2.17-28.4 3.56-3.41 0.374-6.74 0.406-10.2 0.347v-3c2.17-1.94 4.31-3.69 6.62-5.44 0.617-0.478 1.23-0.955 1.87-1.45 10.4-7.94 10.4-7.94 16.5-10.1v-2c8.1-6.07 18-10.4 27-15 0.69-0.359 1.38-0.718 2.09-1.09 16.4-8.49 33.3-15.9 51.6-18.5 2.23-0.164 2.23-0.164 3.27-1.39 2.08-0.163 4.17-0.257 6.26-0.325 0.657-0.0231 1.31-0.0461 1.99-0.0699 1.44-0.0501 2.88-0.0981 4.32-0.144 3.11-0.1 6.21-0.213 9.32-0.324 2.49-0.0894 4.99-0.177 7.49-0.265 33.6-1.19 67.2-2.51 100-8.01 5.11-0.834 9.98-0.965 15.2-0.863z" fill="#000002"/>
<path transform="translate(1059,327)" d="m0 0c0.99 0.66 1.98 1.32 3 2-0.0677 0.897-0.135 1.79-0.205 2.72-0.675 9.43-1.03 18.8-1.18 28.3-0.013 0.752-0.0261 1.5-0.0395 2.28-0.101 5.84-0.185 11.7-0.261 17.5-0.0116 0.881-0.0232 1.76-0.0352 2.67-1.22 95.1 3.45 190 7.31 285 0.476 11.7 0.945 23.4 1.41 35.2 0.0387 0.968 0.0773 1.94 0.117 2.93 0.0348 0.877 0.0696 1.75 0.105 2.66 0.0291 0.73 0.0582 1.46 0.0881 2.21 0.247 6.71 0.436 13.4 0.543 20.1 0.0131 0.818 0.0263 1.64 0.0398 2.48 0.222 14.5 0.252 29.1 0.287 43.6 0.0071 2.52 0.0174 5.04 0.0285 7.56 0.0168 4.01 0.0226 8.02 0.0206 12 7.1e-4 1.49 0.00474 2.98 0.0125 4.47 0.0598 12.5-0.857 24.2-5.24 35.9 3.79 0.883 7.28 1.12 11.2 1.11 1.22-7.55e-5 2.44-1.51e-4 3.7-2.29e-4 1.31-0.00516 2.62-0.0103 3.97-0.0156 1.36-0.00187 2.72-0.00329 4.08-0.00429 3.57-0.00381 7.14-0.0136 10.7-0.0247 3.65-0.0103 7.29-0.0148 10.9-0.0198 7.15-0.0107 14.3-0.0278 21.4-0.0488v-2c2.31 0.33 4.62 0.66 7 1-2.53 2.8-4.2 4.46-8 5v2c-5.8 4.26-12.5 7.37-19 10.5-1.89 0.928-3.76 1.88-5.61 2.88-30.1 16-65.5 24.9-99.5 24.7-1.55-0.00502-3.1-0.00959-4.65-0.0137-3.76-0.0109-7.53-0.0281-11.3-0.0488-0.33-0.66-0.66-1.32-1-2 1.01-2.74 2.09-5.39 3.25-8.06 0.657-1.56 1.31-3.12 1.96-4.68 0.313-0.745 0.626-1.49 0.949-2.26 5.4-12.9 6.18-26.1 6.06-40-0.00311-0.751-0.00623-1.5-0.00943-2.28-0.0734-17.1-0.83-34.1-1.7-51.1-0.217-4.28-0.423-8.57-0.631-12.9-0.353-7.26-0.713-14.5-1.08-21.8-0.566-11.3-1.12-22.6-1.67-34-0.184-3.77-0.368-7.55-0.552-11.3-0.0453-0.928-0.0905-1.86-0.137-2.81-0.448-9.19-0.901-18.4-1.35-27.6-1.18-24.1-2.35-48.1-3.47-72.2-0.0388-0.833-0.0777-1.67-0.118-2.52-1.24-26.6-2.2-53.3-2.91-80-0.0341-1.26-0.0683-2.51-0.103-3.81-0.0616-2.3-0.12-4.59-0.175-6.89-0.0547-11.6-0.0547-11.6-2.32-22.9-0.0377-1.94-0.00967-3.88 0.0542-5.83 0.0369-1.2 0.0738-2.4 0.112-3.63 0.0458-1.3 0.0915-2.6 0.139-3.94 0.0443-1.35 0.0881-2.71 0.132-4.06 0.0925-2.85 0.189-5.69 0.288-8.54 0.126-3.61 0.244-7.22 0.36-10.8 0.0904-2.8 0.184-5.61 0.278-8.41 0.0659-1.97 0.13-3.94 0.194-5.9 0.127-3.62 0.278-7.23 0.444-10.8 0.0757-1.83 0.0757-1.83 0.153-3.7 0.0644-1.17 0.129-2.33 0.195-3.53 0.0529-1.04 0.106-2.08 0.16-3.15 0.552-2.94 1.15-3.84 3.49-5.62 1.68-0.908 3.39-1.75 5.12-2.56 6.3-3.05 12.3-6.55 18.3-10.2 0.7-0.421 1.4-0.842 2.12-1.28 0.625-0.381 1.25-0.762 1.9-1.15 1.6-0.823 1.6-0.823 3.6-0.823v-2c0.655-0.34 1.31-0.681 1.98-1.03 6.38-3.39 12.4-7.11 18.3-11.2 2.53-1.61 4.91-2.73 7.73-3.73-1.64-5.36-3.47-10.2-6.33-15.1-0.966-2.76-0.684-4.18 0.328-6.92 2.36-2.35 2.36-2.35 5.31-4.62 0.966-0.755 1.93-1.51 2.93-2.29 4.52-3.41 4.52-3.41 6.76-5.09z" fill="#000002"/>
<path transform="translate(851 999)" d="m0 0c1.04 0.00843 1.04 0.00843 2.09 0.017 0.729-0.0019 1.46-0.0038 2.21-0.00575 2.41-0.00371 4.83 7e-3 7.24 0.0182 1.67 0.00119 3.35 0.00164 5.02 0.00139 3.51 0.00157 7.02 0.00986 10.5 0.0233 4.51 0.017 9.01 0.0208 13.5 0.0201 3.46 2.72e-4 6.91 0.00575 10.4 0.013 1.66 0.00319 3.32 0.00515 4.99 0.00589 2.32 0.00216 4.64 0.0109 6.96 0.0216 1.04-6.8e-4 1.04-6.8e-4 2.09-0.00137 4.76 0.0322 4.76 0.0322 6.99 1.15-0.795 10.1-7.22 18-13.2 25.6-1.89 2.01-1.89 2.01-1.79 3.37 33.7 1.51 67.3 2.36 101 2 1.22-0.012 2.44-0.024 3.7-0.0364 21.4-0.213 42.9-0.546 64.3-0.964 0.756-0.0146 1.51-0.0291 2.29-0.0442 33.3-0.642 66.5-1.4 99.6-3.89 1.06-0.0794 2.13-0.159 3.22-0.241 20-1.52 39.9-3.53 59.6-7.08 5.66-0.938 5.66-0.938 8.75 0.186 0.721 0.532 0.721 0.532 1.46 1.07-0.99 0.33-1.98 0.66-3 1-0.639 0.66-1.28 1.32-1.94 2-2.19 2.12-3.22 2.31-6.06 3-0.33 0.99-0.66 1.98-1 3-2.75 2-2.75 2-6 4-0.908 0.578-1.82 1.15-2.75 1.75-2.25 1.25-2.25 1.25-4.25 1.25-0.33 0.99-0.66 1.98-1 3-3.06 1.19-3.06 1.19-6 2v2c-1.96 1.4-3.97 2.72-6 4-1.07 0.743-2.14 1.48-3.25 2.25-2.75 1.75-2.75 1.75-4.75 1.75-0.33 0.99-0.66 1.98-1 3-2.15 1.58-2.15 1.58-4.94 3.25-3.84 2.36-7.58 4.77-11.2 7.38-11.6 8.2-23.3 13.8-36.8 18.4-0.909 0.33-1.82 0.66-2.76 1-12.1 3.74-25.4 3.3-38 3.3-1.82 0.00769-3.65 0.0162-5.47 0.0256-3.91 0.0182-7.82 0.0303-11.7 0.0375-6.26 0.0117-12.5 0.0372-18.8 0.0643-9.98 0.0416-20 0.074-29.9 0.102-20.8 0.0597-41.7 0.138-62.5 0.221-1.06 0.00417-2.12 0.00835-3.22 0.0127-27.3 0.108-54.5 0.255-81.8 0.642-2.03 0.0283-4.06 0.0548-6.08 0.0807-23.2 0.309-46.3 1.51-69.5 3.33-3.66 0.286-7.33 0.554-11 0.823-5.79 0.431-11.6 0.88-17.4 1.36l-1-2c2.5-3.37 5.13-5.95 8.38-8.58 11.2-9.83 19.7-23.4 26.6-36.4 0.472-0.862 0.944-1.72 1.43-2.61 6-11.4 9.34-23.7 12.5-36.1 0.358-1.37 0.358-1.37 0.723-2.77 0.314-1.23 0.314-1.23 0.634-2.49 1.46-4.22 3.58-4.26 7.68-4.28z" fill="#000002"/>
<path transform="translate(637 920)" d="m0 0c8.2 8.2 9.56 15.4 9.56 26.4-0.11 8.22-1.34 14.8-7.25 20.9-3.28 3.16-6.54 3.98-11 4-10.3-0.544-18.7-4.34-26-11.7-4.89-8.09-6.01-17.1-4-26.3 2.08-6.72 5.64-13.4 11.8-17.1 9.87-4.22 18.1-1.69 26.8 3.79z" fill="#FCFCFC"/>
<path transform="translate(954 916)" d="m0 0c5.04 3.01 8.31 6.45 11.2 11.5 0.347 0.592 0.694 1.18 1.05 1.79 1.84 4.27 1.28 9 1.26 13.6 0.0161 1.03 0.0322 2.06 0.0488 3.12 0.00366 5.68-0.328 9.55-3.36 14.5-0.162 0.728-0.325 1.46-0.492 2.21-0.854 3.02-3.04 4.09-5.56 5.75-6.28 3.38-13.4 2.01-19.9 0.0469-8.18-3.69-14.6-8.8-17.9-17.3-2.45-8.63-1.59-17.4 1.88-25.7 7.09-11.5 19.6-15.5 31.8-9.5z" fill="#FDFDFD"/>
<path transform="translate(951,909)" d="m0 0c1.08 0.104 1.08 0.104 2.19 0.211 7.81 1.22 13.3 5.68 18.2 11.7 5.05 9.51 6.32 18.6 3.9 29.3-3.37 10-9.51 15.3-18.3 20.8-0.677 0.44-1.35 0.879-2.05 1.33-7.11 3.91-16.1 3.97-23.9 2.67-7.79-2.91-14.2-8.59-18-16-2.86-8.58-1.98-20 1.85-28.1 1.44-2.41 2.88-4.26 5.15-5.93h2c0.262-0.594 0.523-1.19 0.793-1.8 2.41-4.39 6.37-7.65 11.1-9.07 0.681-0.0412 1.36-0.0825 2.06-0.125v-2c5.14-2.57 9.21-3.58 15-3zm-27.8 14.9c-4.47 7.82-5.48 17.2-3.56 25.9 2.16 7.04 5.37 11 11.4 15.2 0.557 0.41 1.11 0.82 1.69 1.24 5.95 3.92 13 4.76 20 4.76 4.48-1.35 8.06-3.62 11.3-7 0.649-1.9 0.649-1.9 1-4 0.33-0.762 0.66-1.52 1-2.31 3.09-8.3 2.42-20.8-0.0269-29.2-3.24-5.84-8.17-9.35-14-12.5-0.655-0.373-1.31-0.745-1.98-1.13-9.59-4.14-20.9 1.26-26.8 9.05z" fill="#000002"/>
<path transform="translate(502,909)" d="m0 0c3.77 1.26 3.96 2.24 5.75 5.69 0.789 1.51 0.789 1.51 1.59 3.04 2.24 4.42 4.45 8.85 6.66 13.3 2.36 4.73 4.8 9.42 7.25 14.1 0.424 0.818 0.849 1.64 1.29 2.48 0.406 0.773 0.811 1.55 1.23 2.34 0.359 0.686 0.717 1.37 1.09 2.08 1.26 2.16 2.49 4.1 4.15 5.98h3c0.66-1.65 1.32-3.3 2-5 1.32 0.33 2.64 0.66 4 1-1.11 7.18-4.73 14.5-10.4 19.2-0.866 0.598-1.73 1.2-2.62 1.81v-3h-2c-0.436-0.955-0.871-1.91-1.32-2.89-3.62-7.87-7.43-15.5-11.7-23.1-1.11-2-2.21-4-3.31-6-0.491-0.887-0.982-1.77-1.49-2.69-1.2-2.31-1.2-2.31-2.2-5.31-0.66 0.33-1.32 0.66-2 1-0.551 2.89-0.551 2.89-0.816 6.41-0.0921 0.972-0.0921 0.972-0.186 1.96-0.196 2.08-0.378 4.16-0.56 6.25-0.188 2.06-0.379 4.12-0.571 6.18-0.174 1.89-0.342 3.77-0.51 5.66-0.357 3.53-0.831 7.03-1.36 10.5 1.32 0.99 2.64 1.98 4 3-0.495 0.99-0.495 0.99-1 2-2.33 0.381-4.66 0.713-7 1-0.99 0.495-0.99 0.495-2 1 0.482-6.83 1.06-13.6 1.73-20.5 0.788-7.91 1.42-15.8 1.77-23.7 0.8-17.4 0.8-17.4 5.5-23.8z" fill="#000002"/>
<path transform="translate(1155 912)" d="m0 0c4.51 5.68 5.75 10 5.54 17.2-0.642 4.62-3.14 6.58-6.61 9.37-0.578 0.392-1.15 0.784-1.75 1.19-0.66-0.33-1.32-0.66-2-1 0.33-0.33 0.66-0.66 1-1 0.154-2.43 0.232-4.82 0.25-7.25 0.0206-0.669 0.0412-1.34 0.0625-2.03 0.035-4.45-0.617-7.17-3.31-10.7-4.76-4.04-11-4-17-4-0.0251 0.92-0.0501 1.84-0.0759 2.79-0.479 17.4-0.984 34.8-1.92 52.2 1.98 0.66 3.96 1.32 6 2-1.87 2.45-2.83 2.97-5.92 3.51-1.08 0.058-2.16 0.116-3.27 0.176-1.09 0.0657-2.17 0.131-3.29 0.199-1.25 0.0561-1.25 0.0561-2.52 0.113-0.33-0.66-0.66-1.32-1-2 0.33-0.66 0.66-1.32 1-2 1.21-8.49 1.3-17.1 1.56-25.7 0.0425-1.32 0.0849-2.64 0.129-3.99 0.279-9.11 0.44-18.2 0.309-27.3h-2v-3c9.75-4.43 26-5.79 34.8 1.25z" fill="#000002"/>
<path transform="translate(817,911)" d="m0 0h-2c-0.33 0.99-0.66 1.98-1 3-7.59 0.33-15.2 0.66-23 1-0.0206 3.44-0.0412 6.89-0.0625 10.4-0.0137 1.63-0.0137 1.63-0.0276 3.29-0.0025 0.85-5e-3 1.7-0.00757 2.58-0.00524 0.875-0.0105 1.75-0.0159 2.65-0.114 2.04-0.114 2.04 1.11 3.04 1.41 0.156 2.83 0.251 4.25 0.316 1.28 0.0628 1.28 0.0628 2.59 0.127 0.898 0.0393 1.8 0.0786 2.72 0.119 1.35 0.0648 1.35 0.0648 2.73 0.131 2.23 0.106 4.47 0.208 6.71 0.307-0.33 1.32-0.66 2.64-1 4-1.2 0.0374-2.41 0.0748-3.65 0.113-1.58 0.0656-3.15 0.132-4.73 0.199-0.794 0.0226-1.59 0.0451-2.41 0.0684-2.08 0.097-4.15 0.349-6.22 0.619-2.27 3.4-2.24 4.56-2.2 8.54 0.00645 1.07 0.0129 2.15 0.0195 3.25 0.0168 1.12 0.0335 2.24 0.0508 3.39 0.00902 1.13 0.018 2.26 0.0273 3.43 0.0236 2.8 0.0565 5.59 0.0977 8.38 1.19 0.049 2.38 0.098 3.61 0.148 1.57 0.075 3.13 0.151 4.7 0.227 1.18 0.0464 1.18 0.0464 2.38 0.0938 1.14 0.058 1.14 0.058 2.29 0.117 0.696 0.0314 1.39 0.0628 2.11 0.0952 1.9 0.319 1.9 0.319 4.9 2.32-6.58 1.65-12.8 2.39-19.6 2.62-0.913 0.0387-1.83 0.0773-2.77 0.117-2.22 0.0931-4.45 0.179-6.67 0.258-0.983-3.28-1.11-6.21-1.08-9.62 0.00653-1.13 0.0131-2.26 0.0198-3.42 0.0114-1.21 0.0229-2.43 0.0347-3.68 0.0126-2.57 0.025-5.13 0.0371-7.7 0.0238-4.05 0.0525-8.1 0.0862-12.1 0.0319-3.91 0.048-7.81 0.0642-11.7 0.0135-1.21 0.0269-2.43 0.0408-3.68 0.00338-1.13 0.00676-2.26 0.0102-3.42 0.00746-0.992 0.0149-1.98 0.0226-3.01-0.24-2.69-0.858-4.32-2.23-6.62 2.59-0.864 4.32-1.18 6.99-1.32 0.782-0.0421 1.56-0.0843 2.37-0.128 1.24-0.0586 1.24-0.0586 2.51-0.118 0.848-0.041 1.7-0.082 2.57-0.124 19.7-0.899 19.7-0.899 23.6 1.69z" fill="#000002"/>
<path transform="translate(1092 909)" d="m0 0c1.2-0.0142 2.41-0.0284 3.65-0.043 2.98 0.23 2.98 0.23 5.98 2.23-1.74 2.19-2.65 2.94-5.45 3.43-0.948 0.0262-1.9 0.0524-2.87 0.0793-1.03 0.0354-2.06 0.0709-3.12 0.107-1.07 0.0226-2.14 0.0451-3.25 0.0684-1.08 0.0342-2.17 0.0683-3.28 0.104-2.68 0.0825-5.35 0.147-8.03 0.209v22c5.79-0.079 5.79-0.079 11.6-0.18 0.723-5e-3 1.45-0.00999 2.19-0.0151 0.738-0.0105 1.48-0.0209 2.24-0.0317 1.99 0.227 1.99 0.227 4.99 2.23h-2c-0.33 0.99-0.66 1.98-1 3-1.14 0.0606-2.29 0.121-3.46 0.184-1.49 0.0844-2.98 0.169-4.47 0.254-1.13 0.059-1.13 0.059-2.29 0.119-3.69-0.116-3.69-0.116-6.78 1.44-0.368 2.33-0.702 4.66-1 7h-2c0.138 3.15 0.287 6.29 0.438 9.44 0.0393 0.898 0.0786 1.8 0.119 2.72 0.0628 1.28 0.0628 1.28 0.127 2.59 0.055 1.19 0.055 1.19 0.111 2.4 0.011 1.87 0.011 1.87 1.21 2.86 3.34 0.0264 6.67-0.029 10-0.127 3.84-0.0597 6.74-0.0491 9.99 2.13-6.38 1.85-12.4 2.41-19 2.62-0.966 0.0387-1.93 0.0773-2.93 0.117-2.36 0.0934-4.72 0.179-7.07 0.258-0.998-3.32-1.12-6.32-1.11-9.78 7.55e-5 -1.16 1.51e-4 -2.32 2.29e-4 -3.52 0.00516-1.25 0.0103-2.5 0.0156-3.78 0.00141-1.28 0.00283-2.56 0.00429-3.88 0.00381-3.4 0.0136-6.8 0.0247-10.2 0.0102-3.47 0.0148-6.94 0.0198-10.4 0.0107-6.81 0.0278-13.6 0.0488-20.4h-2c0.33-0.99 0.66-1.98 1-3 3.06-1.53 6.32-1.38 9.69-1.56 1.13-0.0615 1.13-0.0615 2.28-0.124 5.13-0.26 10.3-0.444 15.4-0.501z" fill="#000002"/>
<path transform="translate(565,908)" d="m0 0c0.99 0.33 1.98 0.66 3 1 0.897 13.2 1.29 26.4 1.56 39.6 0.0433 1.99 0.087 3.99 0.131 5.98 0.105 4.82 0.207 9.64 0.307 14.5 1.65 0.66 3.3 1.32 5 2-4.26 4.12-7.27 4.71-13 5-1.55-1.55-1.21-3.08-1.3-5.24-0.0599-1.35-0.0599-1.35-0.121-2.73-0.0386-0.979-0.0772-1.96-0.117-2.97-0.043-0.997-0.086-1.99-0.13-3.02-0.137-3.2-0.267-6.4-0.397-9.6-0.0914-2.16-0.183-4.33-0.275-6.49-0.226-5.32-0.446-10.6-0.662-15.9-0.99-0.33-1.98-0.66-3-1-0.268 0.969-0.536 1.94-0.812 2.94-0.392 1.01-0.784 2.02-1.19 3.06-0.99 0.33-1.98 0.66-3 1-0.33 0.66-0.66 1.32-1 2-0.856-2.38-1.18-3.55-0.215-5.94 0.632-1.02 0.632-1.02 1.28-2.06 2.19-3.67 4.1-7.38 5.94-11.2 2.19-4.44 4.19-7.61 8-10.8z" fill="#000002"/>
<path transform="translate(880,909)" d="m0 0c-0.474 0.351-0.949 0.701-1.44 1.06-3.8 4.71-2.65 12.3-2.56 18.1 0.11 13.6-0.463 27.2-1 40.9 0.968-0.0157 0.968-0.0157 1.96-0.0317 2.93-0.0416 5.86-0.0676 8.79-0.0933 1.02-0.0168 2.03-0.0335 3.08-0.0508 0.98-0.00645 1.96-0.0129 2.97-0.0195 0.901-0.0105 1.8-0.0209 2.73-0.0317 2.61 0.24 4.23 0.904 6.47 2.23-1.98 0.495-1.98 0.495-4 1v2c-10.4 0.702-20.6 1.15-31 1-1.28-2.56-0.71-3.27 0-6 0.147-1.94 0.247-3.88 0.316-5.82 0.042-1.16 0.084-2.33 0.127-3.53 0.0392-1.25 0.0785-2.49 0.119-3.78 0.0425-1.28 0.0849-2.55 0.129-3.87 0.388-12.7 0.413-25.3 0.309-38-0.99-0.33-1.98-0.66-3-1 4.66-5.14 9.57-4.41 16-4z" fill="#000002"/>
<path transform="translate(999 910)" d="m0 0c1.08 0.018 2.16 0.0361 3.27 0.0547 1.23 0.0348 1.23 0.0348 2.48 0.0703-0.33 0.66-0.66 1.32-1 2h-2c0.937 5.9 2.29 11 4.86 16.4 3.67 8.21 6.29 16.9 9.11 25.5 0.321 0.933 0.642 1.87 0.973 2.83 0.318 0.944 0.637 1.89 0.965 2.86 0.984 2.69 0.984 2.69 4.1 4.39 0.66-0.66 1.32-1.32 2-2-0.631 3.09-1.66 5.44-3.31 8.12-0.409 0.683-0.817 1.37-1.24 2.07-1.63 2.03-3.06 2.82-5.45 3.8v-3h-2c-0.202-0.62-0.403-1.24-0.611-1.88-0.917-2.81-1.84-5.62-2.76-8.43-0.317-0.976-0.634-1.95-0.961-2.96-0.309-0.938-0.619-1.88-0.938-2.84-0.283-0.864-0.566-1.73-0.857-2.62-0.86-2.49-0.86-2.49-2.87-5.27-0.528-1.74-1-3.49-1.44-5.25-0.975-3.72-2.06-7.17-3.68-10.7-1.77-4.17-3.14-8.49-4.6-12.8-1.17-3.03-2.52-5.59-4.28-8.3 3.48-2.14 6.21-2.21 10.2-2.12z" fill="#000002"/>
<path transform="translate(677 910)" d="m0 0c0.91 0.00902 1.82 0.018 2.76 0.0273 0.699 0.0116 1.4 0.0232 2.12 0.0352v3c0.378 5.48 1.48 9.45 3.82 14.4 3.1 6.9 5.39 14.2 7.74 21.4 2.55 8.8 2.55 8.8 7.44 16.2-0.303 3.84-1.52 6.09-4 9-2.32-0.0938-2.32-0.0938-5-1-1.59-2.78-1.59-2.78-2.94-6.5-0.248-0.668-0.496-1.34-0.752-2.02-0.792-2.15-1.55-4.31-2.31-6.48-0.501-1.41-1-2.81-1.5-4.21-1.01-2.83-2-5.66-2.98-8.5-2.64-7.54-5.47-15-8.35-22.5-2.16-5.61-2.16-5.61-2.16-7.83h-2c0.375-1.94 0.375-1.94 1-4 2.52-1.26 4.31-1.1 7.12-1.06z" fill="#000002"/>
<path transform="translate(644 914)" d="m0 0c8.94 9.43 10.8 18.4 10.6 31-0.409 8.07-3.85 13.6-9.32 19.4-2.31 1.88-2.31 1.88-4 3-0.66-0.33-1.32-0.66-2-1 0.433-0.474 0.866-0.949 1.31-1.44 4.38-6.64 4.98-13 5.06-20.7 0.0138-0.764 0.0276-1.53 0.0417-2.31-0.0691-8.51-3.47-15.5-9.42-21.6-7.29-4.81-14.5-5.89-23.1-4.5-0.639 0.165-1.28 0.33-1.94 0.5 0.5-1.81 0.5-1.81 2-4 10-5.01 21.1-4.06 30.8 1.62z" fill="#000002"/>
<path transform="translate(603,922)" d="m0 0c-0.295 0.709-0.59 1.42-0.895 2.15-3.81 9.82-5.74 19.6-1.79 29.7 3.77 6.98 8.37 11 15.7 14.1 6.91 1.62 13.3 3.07 20 0h3c-2.07 2.8-3.14 3.03-6.69 3.69-1.64 0.155-1.64 0.155-3.31 0.312v2c-3.64 1.21-7.02 1.22-10.8 1.25-0.699 0.0206-1.4 0.0412-2.12 0.0625-8.09 0.0605-14.3-3.97-20.1-9.31-6.32-8.08-6.94-15.9-6-26 1.73-6.21 5.34-18 13-18z" fill="#000002"/>
<path transform="translate(757,910)" d="m0 0-2 2c-0.371 2.55-0.371 2.55-0.411 5.55-0.0598 1.74-0.0598 1.74-0.121 3.52-0.0334 1.26-0.0668 2.52-0.101 3.81-0.0416 1.28-0.0831 2.57-0.126 3.89-0.11 3.42-0.209 6.83-0.306 10.2-0.1 3.49-0.212 6.97-0.322 10.5-0.215 6.84-0.418 13.7-0.613 20.5 0.619 0.144 1.24 0.289 1.88 0.438 2.12 0.562 2.12 0.562 4.12 1.56-5.15 3.17-9.16 3.35-15 3-0.33-0.66-0.66-1.32-1-2 0.33-0.66 0.66-1.32 1-2 1.01-7.24 1.17-14.5 1.2-21.8 0.0057-0.979 0.0114-1.96 0.0173-2.97 0.00936-2.04 0.0159-4.09 0.0198-6.13 0.00984-3.14 0.041-6.28 0.0723-9.42 0.00652-1.99 0.0118-3.99 0.0156-5.98 0.0123-0.939 0.0247-1.88 0.0374-2.85-3e-3 -0.865-6e-3 -1.73-0.00909-2.62 0.00365-0.762 0.00729-1.52 0.011-2.31-0.121-0.619-0.243-1.24-0.367-1.87-0.99-0.66-1.98-1.32-3-2v-2c5.32-2.32 9.44-1.91 15-1z" fill="#000002"/>
<path transform="translate(1193,921)" d="m0 0c0.66 0.33 1.32 0.66 2 1 0.263 1.55 0.461 3.12 0.625 4.69 0.745 3.91 1.46 6.02 4.62 8.5 5.91 3.82 12.4 6.8 18.8 9.81v2h2c3.11 3.71 3.56 7.16 3.44 11.8-0.697 3.44-2.75 5.08-5.44 7.16-2-3-2-3-2.81-6.31-1.67-5.2-4.09-8.59-8.98-11.1-1.06-0.509-2.12-1.02-3.21-1.54-2.05-1.13-4.09-2.27-6.12-3.44-1.52-0.864-1.52-0.864-3.07-1.75-2.71-1.76-4.78-3.3-6.8-5.82-0.461-2.22-0.461-2.22-0.375-4.5 0.0129-0.753 0.0258-1.51 0.0391-2.28 0.375-2.48 1-4.1 2.34-6.22 0.99-0.66 1.98-1.32 3-2z" fill="#000002"/>
<path transform="translate(1146,941)" d="m0 0c2.53 2.43 4.88 4.98 7.19 7.62 0.909 1.04 0.909 1.04 1.84 2.1 1.37 1.57 2.73 3.15 4.08 4.73 5.15 5.91 10.6 10.8 16.9 15.5-0.495 1.49-0.495 1.49-1 3-4.84 0.834-8.52 0.98-12.7-1.79-4.52-4.06-8.51-8.46-12.3-13.2-2.25-2.31-4.52-4.56-6.91-6.73-0.975-0.909-0.975-0.909-1.97-1.84-0.616-0.558-1.23-1.12-1.87-1.69-1.26-1.75-1.26-1.75-0.953-3.96 0.229-0.589 0.459-1.18 0.695-1.79 2.31-0.66 4.62-1.32 7-2z" fill="#000002"/>
<path transform="translate(724 910)" d="m0 0c1.08 0.018 2.16 0.0361 3.27 0.0547 1.23 0.0348 1.23 0.0348 2.48 0.0703-0.387 0.403-0.773 0.807-1.17 1.22-4.77 5.56-6.3 11.3-7.87 18.3-0.927 3.38-2.1 5.56-3.96 8.49-0.739 1.69-1.48 3.39-2.19 5.1-1.48 3.47-3.15 6.84-4.81 10.2-0.343 0.715-0.686 1.43-1.04 2.17-1.7 3.44-2.71 5.35-5.96 7.52 0.268-0.66 0.536-1.32 0.812-2 1.44-3.65 2.82-7.32 4.19-11h2c0.11-0.831 0.219-1.66 0.332-2.52 0.159-1.09 0.317-2.17 0.48-3.29 0.226-1.62 0.226-1.62 0.457-3.27 0.778-3.11 1.48-3.82 3.73-5.92 1.62-6.03 2.53-15.5-0.0117-21.3-0.326-0.563-0.652-1.13-0.988-1.71 3.48-2.14 6.21-2.21 10.2-2.12z" fill="#000002"/>
<path transform="translate(1046,910)" d="m0 0c2.5 1 2.5 1 4 2h-3c-0.124 0.536-0.247 1.07-0.375 1.62-0.748 2.84-1.68 5.59-2.62 8.38-0.542 1.62-1.08 3.25-1.62 4.88-0.458 1.38-0.917 2.75-1.38 4.12h-2c-0.0412 1.07-0.0825 2.14-0.125 3.25-0.767 6.19-3.93 11.3-6.88 16.8-0.463 0.891-0.926 1.78-1.4 2.7-3.2 6.03-3.2 6.03-6.6 8.3 1.06-2.78 2.21-5.41 3.56-8.06 1.5-2.76 1.5-2.76 1.94-5.25 0.165-0.557 0.33-1.11 0.5-1.69 1.48-0.495 1.48-0.495 3-1-0.0206-1.05-0.0412-2.1-0.0625-3.19 0.0515-3.14 0.328-5.78 1.06-8.81h2c1.94-11.3 1.94-11.3-1-22 3.7-2.47 6.71-2.45 11-2z" fill="#010103"/>
<path transform="translate(1188,966)" d="m0 0c0.701 0.289 1.4 0.577 2.12 0.875 6.21 2.43 12.3 3.91 18.9 5.12-3.96 3.77-6.44 4.53-11.9 4.44-5.47-0.144-9.39-0.731-14.1-3.44 1.29-2.88 2.66-4.87 5-7z" fill="#000002"/>
<path transform="translate(1222,909)" d="m0 0c0.66 0.66 1.32 1.32 2 2-0.375 2.62-0.375 2.62-1 5-5.75 0.125-5.75 0.125-8-1-1.87-0.0703-3.75-0.0843-5.62-0.0625-1.5 0.0135-1.5 0.0135-3.04 0.0273-1.16 0.0174-1.16 0.0174-2.34 0.0352 0.99-0.33 1.98-0.66 3-1 0.733-2.02 0.733-2.02 1-4 4.77-0.955 9.15-1.24 14-1z" fill="#020204"/>
<path transform="translate(548,937)" d="m0 0c0.66 0.33 1.32 0.66 2 1-0.33 1.32-0.66 2.64-1 4h-2c-0.0619 0.681-0.124 1.36-0.188 2.06-1.1 3.97-3.3 6.72-5.81 9.94-0.847-3.06-1.25-4.99 0-8 0.99-0.33 1.98-0.66 3-1 0.705-2.32 1.37-4.66 2-7 0.66-0.33 1.32-0.66 2-1z" fill="#000002"/>
<path transform="translate(1033,944)" d="m0 0c1 3 1 3-0.328 6.07-0.951 1.73-0.951 1.73-1.92 3.5-0.624 1.16-1.25 2.31-1.89 3.5-1.86 2.93-1.86 2.93-4.86 4.93 1.06-2.78 2.21-5.41 3.56-8.06 1.5-2.76 1.5-2.76 1.94-5.25 0.165-0.557 0.33-1.11 0.5-1.69 0.99-0.33 1.98-0.66 3-1v-2z" fill="#000002"/>
</svg>
